<?xml version="1.0" standalone="no"?><!DOCTYPE svg PUBLIC "-//W3C//DTD SVG 1.1//EN" "http://www.w3.org/Graphics/SVG/1.1/DTD/svg11.dtd"><svg t="1573117168365" class="icon" viewBox="0 0 1024 1024" version="1.1" xmlns="http://www.w3.org/2000/svg" p-id="9795" width="32" height="32" xmlns:xlink="http://www.w3.org/1999/xlink"><defs><style type="text/css"></style></defs><path d="M456.99072 608.60416l-272.9984-28.73344a68.23936 68.23936 0 0 1 0-135.74144l272.9984-28.73344A61.44 61.44 0 0 0 512 354.28352v-132.15744C512 201.23648 529.73568 184.32 551.60832 184.32c10.15808 0 19.94752 3.72736 27.32032 10.4448L882.688 470.91712a54.90688 54.90688 0 0 1 0 82.1248L578.92864 829.25568a40.96 40.96 0 0 1-56.0128-1.31072A36.90496 36.90496 0 0 1 512 801.87392V669.696a61.44 61.44 0 0 0-55.00928-61.11232z" p-id="9796" fill="#8a8a8a"></path></svg>