<?xml version="1.0" standalone="no"?><!DOCTYPE svg PUBLIC "-//W3C//DTD SVG 1.1//EN" "http://www.w3.org/Graphics/SVG/1.1/DTD/svg11.dtd"><svg t="1575723873007" class="icon" viewBox="0 0 1024 1024" version="1.1" xmlns="http://www.w3.org/2000/svg" p-id="14552" width="32" height="32" xmlns:xlink="http://www.w3.org/1999/xlink"><defs><style type="text/css"></style></defs><path d="M512 962.56C263.168 962.56 61.44 760.832 61.44 512S263.168 61.44 512 61.44s450.56 201.728 450.56 450.56-201.728 450.56-450.56 450.56z m-125.50144-602.27584a41.472 41.472 0 0 0-26.2144 26.2144l-112.39424 337.16224a41.472 41.472 0 0 0 52.46976 52.46976l337.14176-112.39424a41.472 41.472 0 0 0 26.2144-26.2144l112.39424-337.16224a41.472 41.472 0 0 0-52.46976-52.46976l-337.14176 112.39424zM512 593.92a81.92 81.92 0 1 1 0-163.84 81.92 81.92 0 0 1 0 163.84z" p-id="14553" fill="#8a8a8a"></path></svg>