<?xml version="1.0" standalone="no"?><!DOCTYPE svg PUBLIC "-//W3C//DTD SVG 1.1//EN" "http://www.w3.org/Graphics/SVG/1.1/DTD/svg11.dtd"><svg t="1571837502154" class="icon" viewBox="0 0 1024 1024" version="1.1" xmlns="http://www.w3.org/2000/svg" p-id="8435" width="32" height="32" xmlns:xlink="http://www.w3.org/1999/xlink"><defs><style type="text/css"></style></defs><path d="M512 962.56C263.168 962.56 61.44 760.832 61.44 512S263.168 61.44 512 61.44s450.56 201.728 450.56 450.56-201.728 450.56-450.56 450.56z m212.7872-237.7728c15.38048-15.42144 16.73216-39.936 3.11296-56.9344l-97.15712-121.2416a55.33696 55.33696 0 0 1 0-69.2224l97.15712-121.2416a42.72128 42.72128 0 0 0-60.04736-60.04736l-121.2416 97.15712a55.33696 55.33696 0 0 1-69.2224 0l-121.2416-97.15712a42.72128 42.72128 0 0 0-60.04736 60.04736l97.15712 121.2416a55.33696 55.33696 0 0 1 0 69.2224l-97.15712 121.2416a42.72128 42.72128 0 0 0 60.04736 60.04736l121.2416-97.15712a55.33696 55.33696 0 0 1 69.2224 0l121.2416 97.15712c16.9984 13.6192 41.51296 12.26752 56.9344-3.13344z" p-id="8436" fill="#8a8a8a"></path></svg>