<?xml version="1.0" standalone="no"?><!DOCTYPE svg PUBLIC "-//W3C//DTD SVG 1.1//EN" "http://www.w3.org/Graphics/SVG/1.1/DTD/svg11.dtd"><svg t="1575204727531" class="icon" viewBox="0 0 1024 1024" version="1.1" xmlns="http://www.w3.org/2000/svg" p-id="4482" width="32" height="32" xmlns:xlink="http://www.w3.org/1999/xlink"><defs><style type="text/css"></style></defs><path d="M864.0512 368.64c21.95456 0 39.07584 19.456 36.864 41.86112L861.94176 730.112C852.3776 827.20768 772.7104 901.12 677.5808 901.12h-331.1616c-95.10912 0-174.77632-73.91232-184.34048-171.02848L123.06432 410.50112C120.87296 388.096 138.0352 368.64 159.9488 368.64h704.1024z m6.3488-61.44H163.84a40.96 40.96 0 0 1-40.96-40.96v-61.44a81.92 81.92 0 0 1 81.92-81.92h181.4528a81.92 81.92 0 0 1 68.13696 36.47488l33.30048 49.93024A81.92 81.92 0 0 0 555.8272 245.76H870.4a30.72 30.72 0 0 1 0 61.44z" p-id="4483" fill="#8a8a8a"></path></svg>