<?xml version="1.0" standalone="no"?><!DOCTYPE svg PUBLIC "-//W3C//DTD SVG 1.1//EN" "http://www.w3.org/Graphics/SVG/1.1/DTD/svg11.dtd"><svg t="1573116608311" class="icon" viewBox="0 0 1024 1024" version="1.1" xmlns="http://www.w3.org/2000/svg" p-id="7595" width="32" height="32" xmlns:xlink="http://www.w3.org/1999/xlink"><defs><style type="text/css"></style></defs><path d="M525.88544 173.6704C570.1632 129.41312 627.0976 102.4 696.32 102.4c149.01248 0 266.24 121.79456 266.24 293.19168 0 102.8096-50.5856 188.29312-144.01536 280.51456-20.11136 19.8656-81.57184 76.14464-84.33664 78.80704-8.704 8.27392-18.08384 16.85504-28.11904 25.7024a1492.11136 1492.11136 0 0 1-39.64928 33.71008c-28.672 23.552-59.2896 47.26784-89.88672 70.00064a2503.43424 2503.43424 0 0 1-40.98048 29.81888 40.96 40.96 0 0 1-47.14496 0 2503.43424 2503.43424 0 0 1-41.00096-29.7984 2346.25024 2346.25024 0 0 1-89.86624-70.02112 1492.11136 1492.11136 0 0 1-39.64928-33.71008c-10.0352-8.84736-19.41504-17.42848-28.11904-25.7024-2.7648-2.6624-64.22528-58.96192-84.33664-78.80704C112.04608 583.8848 61.44 498.42176 61.44 395.59168 61.44 224.17408 178.66752 102.4 327.68 102.4c69.2224 0 126.1568 26.99264 170.43456 71.2704 4.97664 4.97664 9.60512 9.95328 13.88544 14.86848 4.3008-4.9152 8.9088-9.89184 13.88544-14.848zM317.44 491.52a112.64 112.64 0 1 0 0-225.28 112.64 112.64 0 0 0 0 225.28z" p-id="7596" fill="#8a8a8a"></path></svg>