<?xml version="1.0" standalone="no"?><!DOCTYPE svg PUBLIC "-//W3C//DTD SVG 1.1//EN" "http://www.w3.org/Graphics/SVG/1.1/DTD/svg11.dtd"><svg t="1571837779127" class="icon" viewBox="0 0 1024 1024" version="1.1" xmlns="http://www.w3.org/2000/svg" p-id="12160" width="32" height="32" xmlns:xlink="http://www.w3.org/1999/xlink"><defs><style type="text/css"></style></defs><path d="M472.65792 551.34208a61.44 61.44 0 1 1-86.89664 86.89664c-104.7552-104.7552-104.7552-274.59584 0-379.33056l118.90688-118.90688c104.73472-104.7552 274.57536-104.7552 379.33056 0 104.7552 104.7552 104.7552 274.59584 0 379.33056a61.44 61.44 0 1 1-86.89664-86.87616 145.34656 145.34656 0 1 0-205.55776-205.55776l-118.8864 118.8864a145.34656 145.34656 0 0 0 0 205.55776z m78.68416-78.68416a61.44 61.44 0 1 1 86.89664-86.89664c104.7552 104.7552 104.7552 274.59584 0 379.33056l-118.90688 118.90688c-104.73472 104.7552-274.57536 104.7552-379.33056 0-104.7552-104.7552-104.7552-274.59584 0-379.33056a61.44 61.44 0 1 1 86.89664 86.87616 145.34656 145.34656 0 1 0 205.55776 205.55776l118.8864-118.8864a145.34656 145.34656 0 0 0 0-205.55776z" p-id="12161" fill="#8a8a8a"></path></svg>