<?xml version="1.0" standalone="no"?><!DOCTYPE svg PUBLIC "-//W3C//DTD SVG 1.1//EN" "http://www.w3.org/Graphics/SVG/1.1/DTD/svg11.dtd"><svg t="1574948816603" class="icon" viewBox="0 0 1024 1024" version="1.1" xmlns="http://www.w3.org/2000/svg" p-id="8053" width="32" height="32" xmlns:xlink="http://www.w3.org/1999/xlink"><defs><style type="text/css"></style></defs><path d="M669.42976 634.88h129.10592a81.92 81.92 0 0 1 72.23296 43.29472l86.91712 162.57024c10.6496 19.90656 3.25632 44.7488-16.52736 55.48032-5.9392 3.21536-12.55424 4.89472-19.27168 4.89472H102.11328A40.81664 40.81664 0 0 1 61.44 860.16c0-6.77888 1.67936-13.45536 4.85376-19.41504l86.9376-162.57024A81.92 81.92 0 0 1 225.46432 634.88h129.10592C304.9472 554.51648 266.24 453.59104 266.24 368.16896 266.24 232.69376 376.27904 122.88 512 122.88s245.76 109.81376 245.76 245.28896c0 85.42208-38.7072 186.368-88.33024 266.71104z m-137.87136 43.33568c21.21728-19.51744 44.70784-48.8448 66.39616-83.51744C645.5296 518.67648 675.84 431.88224 675.84 368.18944 675.84 277.95456 602.5216 204.8 512 204.8s-163.84 73.17504-163.84 163.36896c0 63.6928 30.3104 150.50752 77.88544 226.5088 21.7088 34.69312 45.17888 64.02048 66.39616 83.53792 7.41376 6.79936 14.09024 11.9808 19.5584 15.40096 5.46816-3.42016 12.14464-8.6016 19.5584-15.40096zM512 450.56a81.92 81.92 0 1 1 0-163.84 81.92 81.92 0 0 1 0 163.84z" p-id="8054" fill="#8a8a8a"></path></svg>