<?xml version="1.0" standalone="no"?><!DOCTYPE svg PUBLIC "-//W3C//DTD SVG 1.1//EN" "http://www.w3.org/Graphics/SVG/1.1/DTD/svg11.dtd"><svg t="1573204302604" class="icon" viewBox="0 0 1024 1024" version="1.1" xmlns="http://www.w3.org/2000/svg" p-id="4253" width="32" height="32" xmlns:xlink="http://www.w3.org/1999/xlink"><defs><style type="text/css"></style></defs><path d="M675.84 602.39872V348.16H204.8v319.6928l42.53696-44.31872a45.75232 45.75232 0 0 1 69.07904 2.7648l26.624 32.39936a45.79328 45.79328 0 0 0 70.38976 1.35168l119.25504-134.67648a45.7728 45.7728 0 0 1 67.91168-1.41312L675.84 602.39872zM172.99456 266.24h534.65088A50.11456 50.11456 0 0 1 757.76 316.35456v384.28672C757.76 811.35616 667.99616 901.12 557.2608 901.12H323.3792A200.4992 200.4992 0 0 1 122.88 700.6208V316.37504A50.11456 50.11456 0 0 1 172.99456 266.24zM327.68 532.48a61.44 61.44 0 1 1 0-122.88 61.44 61.44 0 0 1 0 122.88z m491.52-327.68H368.64a40.96 40.96 0 1 1 0-81.92h471.04a61.44 61.44 0 0 1 61.44 61.44v471.04a40.96 40.96 0 1 1-81.92 0V204.8z" p-id="4254" fill="#8a8a8a"></path></svg>