<?xml version="1.0" standalone="no"?><!DOCTYPE svg PUBLIC "-//W3C//DTD SVG 1.1//EN" "http://www.w3.org/Graphics/SVG/1.1/DTD/svg11.dtd"><svg t="1571837223746" class="icon" viewBox="0 0 1024 1024" version="1.1" xmlns="http://www.w3.org/2000/svg" p-id="7638" width="32" height="32" xmlns:xlink="http://www.w3.org/1999/xlink"><defs><style type="text/css"></style></defs><path d="M463.74912 537.33376l117.30944 73.44128a81.92 81.92 0 0 0 83.1488 2.2528c13.37344-7.41376 25.088-12.30848 35.1232-14.68416a163.84 163.84 0 1 1-121.11872 198.81984c-1.08544-4.4032-1.82272-12.67712-2.19136-24.80128a81.92 81.92 0 0 0-38.4-66.92864l-83.92704-52.55168a81.92 81.92 0 0 0-86.9376 0c-13.1072 8.192-24.6784 13.7216-34.75456 16.60928a163.84 163.84 0 1 1 0-314.9824c10.07616 2.8672 21.66784 8.41728 34.75456 16.60928a81.92 81.92 0 0 0 86.9376 0l83.92704-52.55168a81.92 81.92 0 0 0 38.4-66.92864c0.36864-12.12416 1.10592-20.39808 2.19136-24.7808a163.84 163.84 0 1 1 121.11872 198.81984c-10.0352-2.39616-21.74976-7.29088-35.1232-14.68416a81.92 81.92 0 0 0-83.1488 2.23232l-117.30944 73.44128a29.88032 29.88032 0 0 0 0 50.66752zM737.28 348.16a81.92 81.92 0 1 0 0-163.84 81.92 81.92 0 0 0 0 163.84zM286.72 593.92a81.92 81.92 0 1 0 0-163.84 81.92 81.92 0 0 0 0 163.84z m450.56 245.76a81.92 81.92 0 1 0 0-163.84 81.92 81.92 0 0 0 0 163.84z" p-id="7639" fill="#8a8a8a"></path></svg>