<?xml version="1.0" standalone="no"?><!DOCTYPE svg PUBLIC "-//W3C//DTD SVG 1.1//EN" "http://www.w3.org/Graphics/SVG/1.1/DTD/svg11.dtd"><svg t="1572872704749" class="icon" viewBox="0 0 1024 1024" version="1.1" xmlns="http://www.w3.org/2000/svg" p-id="7888" width="32" height="32" xmlns:xlink="http://www.w3.org/1999/xlink"><defs><style type="text/css"></style></defs><path d="M322.84672 184.32l27.48416-54.94784A122.88 122.88 0 0 1 460.22656 61.44h103.54688a122.88 122.88 0 0 1 109.89568 67.93216L701.15328 184.32H757.76a81.92 81.92 0 0 1 81.92 81.92v20.48a20.48 20.48 0 0 1-20.48 20.48H204.8a20.48 20.48 0 0 1-20.48-20.48v-20.48a81.92 81.92 0 0 1 81.92-81.92h56.60672z m91.58656 0h195.13344l-9.15456-18.30912A40.96 40.96 0 0 0 563.75296 143.36h-103.5264a40.96 40.96 0 0 0-36.63872 22.65088L414.43328 184.32z m381.78816 184.32C820.224 368.64 839.68 388.34176 839.68 412.63104c0 2.68288-0.24576 5.36576-0.7168 8.00768l-79.40096 433.9712c-11.4688 62.5664-65.37216 107.95008-128.2048 107.95008H392.64256c-62.85312 0-116.75648-45.38368-128.2048-107.95008l-79.40096-433.9712c-4.38272-23.87968 11.22304-46.83776 34.816-51.26144 2.62144-0.49152 5.26336-0.73728 7.92576-0.73728h568.4224zM430.08 512a40.96 40.96 0 0 0-40.96 40.96v225.28a40.96 40.96 0 1 0 81.92 0V552.96a40.96 40.96 0 0 0-40.96-40.96z m163.84 0a40.96 40.96 0 0 0-40.96 40.96v225.28a40.96 40.96 0 1 0 81.92 0V552.96a40.96 40.96 0 0 0-40.96-40.96z" p-id="7889" fill="#8a8a8a"></path></svg>