<?xml version="1.0" standalone="no"?><!DOCTYPE svg PUBLIC "-//W3C//DTD SVG 1.1//EN" "http://www.w3.org/Graphics/SVG/1.1/DTD/svg11.dtd"><svg t="1571837406616" class="icon" viewBox="0 0 1024 1024" version="1.1" xmlns="http://www.w3.org/2000/svg" p-id="8173" width="32" height="32" xmlns:xlink="http://www.w3.org/1999/xlink"><defs><style type="text/css"></style></defs><path d="M61.44 512C61.44 263.168 263.168 61.44 512 61.44s450.56 201.728 450.56 450.56-201.728 450.56-450.56 450.56S61.44 760.832 61.44 512z m393.1136 17.42848a65.1264 65.1264 0 0 1-77.1072 2.3552l-73.9328-51.26144a51.22048 51.22048 0 0 0-64.59392 5.2224 44.38016 44.38016 0 0 0-2.88768 60.94848l119.808 140.288c2.1504 2.51904 4.44416 4.89472 6.8608 7.12704 33.9968 31.39584 87.7568 30.04416 120.03328-3.03104l304.00512-311.33696a41.53344 41.53344 0 0 0-0.77824-59.12576 48.06656 48.06656 0 0 0-62.976-3.1744L454.5536 529.42848z" p-id="8174" fill="#8a8a8a"></path></svg>