<?xml version="1.0" standalone="no"?><!DOCTYPE svg PUBLIC "-//W3C//DTD SVG 1.1//EN" "http://www.w3.org/Graphics/SVG/1.1/DTD/svg11.dtd"><svg t="1574948745815" class="icon" viewBox="0 0 1024 1024" version="1.1" xmlns="http://www.w3.org/2000/svg" p-id="7824" width="32" height="32" xmlns:xlink="http://www.w3.org/1999/xlink"><defs><style type="text/css"></style></defs><path d="M512 962.56C263.168 962.56 61.44 760.832 61.44 512S263.168 61.44 512 61.44s450.56 201.728 450.56 450.56-201.728 450.56-450.56 450.56z m0-368.64a81.92 81.92 0 0 0 81.92-81.92V225.28a40.96 40.96 0 0 0-40.96-40.96c-23.51104 0-43.4176 17.28512-46.75584 40.5504l-27.15648 190.07488a81.92 81.92 0 0 1-63.32416 68.4032l-89.02656 19.7632A51.05664 51.05664 0 0 0 286.72 552.96a40.96 40.96 0 0 0 40.96 40.96h184.32z" p-id="7825" fill="#8a8a8a"></path></svg>