<?xml version="1.0" standalone="no"?><!DOCTYPE svg PUBLIC "-//W3C//DTD SVG 1.1//EN" "http://www.w3.org/Graphics/SVG/1.1/DTD/svg11.dtd"><svg t="1577351468665" class="icon" viewBox="0 0 1024 1024" version="1.1" xmlns="http://www.w3.org/2000/svg" p-id="4260" width="32" height="32" xmlns:xlink="http://www.w3.org/1999/xlink"><defs><style type="text/css"></style></defs><path d="M800.72704 862.16704c-8.0896 25.62048-30.35136 41.5744-53.90336 38.6048l-255.1808-32.1536C386.8672 856.10496 307.2 754.42176 307.2 633.09824v-179.93728c0-41.18528 15.5648-80.87552 43.6224-111.12448L553.984 122.88c56.1152 0 101.66272 45.34272 101.66272 101.25312a100.7616 100.7616 0 0 1-10.752 45.28128L595.08736 368.64h223.78496A82.08384 82.08384 0 0 1 901.12 450.56c0 6.67648-0.8192 13.312-2.43712 19.78368l-97.95584 391.82336zM389.12 634.88a163.84 163.84 0 0 0 163.84 163.84 40.96 40.96 0 1 0 0-81.92 81.92 81.92 0 0 1-81.92-81.92 40.96 40.96 0 1 0-81.92 0zM163.84 389.12h40.96a40.96 40.96 0 0 1 40.96 40.96v368.64a40.96 40.96 0 0 1-40.96 40.96H163.84a40.96 40.96 0 0 1-40.96-40.96V430.08a40.96 40.96 0 0 1 40.96-40.96z" p-id="4261" fill="#8a8a8a"></path></svg>