<?xml version="1.0" standalone="no"?><!DOCTYPE svg PUBLIC "-//W3C//DTD SVG 1.1//EN" "http://www.w3.org/Graphics/SVG/1.1/DTD/svg11.dtd"><svg t="1575448987894" class="icon" viewBox="0 0 1024 1024" version="1.1" xmlns="http://www.w3.org/2000/svg" p-id="6767" width="32" height="32" xmlns:xlink="http://www.w3.org/1999/xlink"><defs><style type="text/css"></style></defs><path d="M128 213.333333l768 0q17.664 0 30.165333 12.501333t12.501333 30.165333-12.501333 30.165333-30.165333 12.501333l-768 0q-17.664 0-30.165333-12.501333t-12.501333-30.165333 12.501333-30.165333 30.165333-12.501333zM128 725.333333l768 0q17.664 0 30.165333 12.501333t12.501333 30.165333-12.501333 30.165333-30.165333 12.501333l-768 0q-17.664 0-30.165333-12.501333t-12.501333-30.165333 12.501333-30.165333 30.165333-12.501333zM128 469.333333l768 0q17.664 0 30.165333 12.501333t12.501333 30.165333-12.501333 30.165333-30.165333 12.501333l-768 0q-17.664 0-30.165333-12.501333t-12.501333-30.165333 12.501333-30.165333 30.165333-12.501333z" p-id="6768" fill="#8a8a8a"></path></svg>