<?xml version="1.0" standalone="no"?><!DOCTYPE svg PUBLIC "-//W3C//DTD SVG 1.1//EN" "http://www.w3.org/Graphics/SVG/1.1/DTD/svg11.dtd"><svg t="1575723380938" class="icon" viewBox="0 0 1024 1024" version="1.1" xmlns="http://www.w3.org/2000/svg" p-id="4253" width="32" height="32" xmlns:xlink="http://www.w3.org/1999/xlink"><defs><style type="text/css"></style></defs><path d="M122.88 450.56C122.88 235.66336 297.10336 61.44 512 61.44s389.12 174.22336 389.12 389.12-174.22336 389.12-389.12 389.12c-42.43456 0-83.29216-6.79936-121.52832-19.3536l-107.86816 119.27552A70.144 70.144 0 0 1 230.58432 962.56a34.7136 34.7136 0 0 1-34.7136-30.5152C147.21024 652.14464 122.88 491.66336 122.88 450.56z m225.28-122.88a40.96 40.96 0 1 0 0 81.92h327.68a40.96 40.96 0 1 0 0-81.92H348.16z m0 163.84a40.96 40.96 0 1 0 0 81.92h204.8a40.96 40.96 0 1 0 0-81.92H348.16z" p-id="4254" fill="#8a8a8a"></path></svg>