<?xml version="1.0" standalone="no"?><!DOCTYPE svg PUBLIC "-//W3C//DTD SVG 1.1//EN" "http://www.w3.org/Graphics/SVG/1.1/DTD/svg11.dtd"><svg t="1574934651915" class="icon" viewBox="0 0 1024 1024" version="1.1" xmlns="http://www.w3.org/2000/svg" p-id="4253" width="32" height="32" xmlns:xlink="http://www.w3.org/1999/xlink"><defs><style type="text/css"></style></defs><path d="M204.8 122.88h440.6272a122.88 122.88 0 0 1 86.87616 35.98336l132.83328 132.83328A122.88 122.88 0 0 1 901.12 378.5728V655.36c0 135.72096-110.03904 245.76-245.76 245.76H368.64c-135.72096 0-245.76-110.03904-245.76-245.76V204.8a81.92 81.92 0 0 1 81.92-81.92z m286.72 122.88a40.96 40.96 0 0 0-40.96-40.96H245.76a40.96 40.96 0 0 0-40.96 40.96v81.92a40.96 40.96 0 0 0 40.96 40.96h389.12a40.96 40.96 0 0 0 40.96-40.96v-81.92a40.96 40.96 0 0 0-40.96-40.96h-20.48a40.96 40.96 0 0 0-40.96 40.96v40.96a40.96 40.96 0 1 1-81.92 0v-40.96zM276.48 573.44a30.72 30.72 0 0 0 0 61.44h471.04a30.72 30.72 0 0 0 0-61.44h-471.04z m40.96 143.36a30.72 30.72 0 0 0 0 61.44h389.12a30.72 30.72 0 0 0 0-61.44h-389.12z" p-id="4254" fill="#8a8a8a"></path></svg>