<?xml version="1.0" standalone="no"?><!DOCTYPE svg PUBLIC "-//W3C//DTD SVG 1.1//EN" "http://www.w3.org/Graphics/SVG/1.1/DTD/svg11.dtd"><svg t="1573117149013" class="icon" viewBox="0 0 1024 1024" version="1.1" xmlns="http://www.w3.org/2000/svg" p-id="9108" width="32" height="32" xmlns:xlink="http://www.w3.org/1999/xlink"><defs><style type="text/css"></style></defs><path d="M415.39584 456.99072l28.73344-272.9984a68.23936 68.23936 0 0 1 135.74144 0l28.73344 272.9984A61.44 61.44 0 0 0 669.71648 512h132.15744c20.8896 0 37.80608 17.73568 37.80608 39.60832 0 10.15808-3.72736 19.94752-10.4448 27.32032L553.08288 882.688a54.90688 54.90688 0 0 1-82.1248 0L194.74432 578.92864a40.96 40.96 0 0 1 1.31072-56.0128c7.02464-7.00416 16.384-10.91584 26.07104-10.91584H354.304a61.44 61.44 0 0 0 61.11232-55.00928z" p-id="9109" fill="#8a8a8a"></path></svg>