<?xml version="1.0" standalone="no"?><!DOCTYPE svg PUBLIC "-//W3C//DTD SVG 1.1//EN" "http://www.w3.org/Graphics/SVG/1.1/DTD/svg11.dtd"><svg t="1573117158142" class="icon" viewBox="0 0 1024 1024" version="1.1" xmlns="http://www.w3.org/2000/svg" p-id="9337" width="32" height="32" xmlns:xlink="http://www.w3.org/1999/xlink"><defs><style type="text/css"></style></defs><path d="M415.39584 567.00928A61.44 61.44 0 0 0 354.28352 512h-132.15744c-9.70752 0-19.0464-3.91168-26.07104-10.91584a40.96 40.96 0 0 1-1.31072-56.0128L470.9376 141.312c0.6144-0.69632 1.29024-1.37216 1.9456-2.048a54.90688 54.90688 0 0 1 80.1792 2.048l276.19328 303.75936c6.69696 7.3728 10.42432 17.16224 10.42432 27.32032C839.68 494.26432 822.74304 512 801.87392 512H669.696a61.44 61.44 0 0 0-61.11232 55.00928l-28.73344 272.9984a68.23936 68.23936 0 0 1-135.74144 0l-28.73344-272.9984z" p-id="9338" fill="#8a8a8a"></path></svg>