<?xml version="1.0" standalone="no"?><!DOCTYPE svg PUBLIC "-//W3C//DTD SVG 1.1//EN" "http://www.w3.org/Graphics/SVG/1.1/DTD/svg11.dtd"><svg t="1571837698701" class="icon" viewBox="0 0 1024 1024" version="1.1" xmlns="http://www.w3.org/2000/svg" p-id="11931" width="32" height="32" xmlns:xlink="http://www.w3.org/1999/xlink"><defs><style type="text/css"></style></defs><path d="M204.8 307.2a81.92 81.92 0 1 1 0-163.84 81.92 81.92 0 0 1 0 163.84z m245.51424-163.59424l409.96864 34.05824C883.3024 179.56864 901.12 200.2944 901.12 225.28s-17.79712 45.71136-40.83712 47.616l-409.96864 34.05824c-41.7792 3.4816-78.2336-30.28992-81.44896-75.38688A88.43264 88.43264 0 0 1 368.64 225.28c0-45.2608 33.95584-81.92 75.85792-81.92 1.9456 0 3.8912 0.08192 5.81632 0.24576z m0 286.72l409.96864 34.05824C883.3024 466.28864 901.12 487.0144 901.12 512s-17.79712 45.71136-40.83712 47.616l-409.96864 34.05824c-41.7792 3.4816-78.2336-30.28992-81.44896-75.38688A88.43264 88.43264 0 0 1 368.64 512c0-45.2608 33.95584-81.92 75.85792-81.92 1.9456 0 3.8912 0.08192 5.81632 0.24576z m0 286.72l409.96864 34.05824C883.3024 753.00864 901.12 773.7344 901.12 798.72s-17.79712 45.71136-40.83712 47.616l-409.96864 34.05824c-41.7792 3.4816-78.2336-30.28992-81.44896-75.38688A88.43264 88.43264 0 0 1 368.64 798.72c0-45.2608 33.95584-81.92 75.85792-81.92 1.9456 0 3.8912 0.08192 5.81632 0.24576zM204.8 573.44a81.92 81.92 0 1 1 0-163.84 81.92 81.92 0 0 1 0 163.84z m0 307.2a81.92 81.92 0 1 1 0-163.84 81.92 81.92 0 0 1 0 163.84z" p-id="11932" fill="#8a8a8a"></path></svg>