<?xml version="1.0" standalone="no"?><!DOCTYPE svg PUBLIC "-//W3C//DTD SVG 1.1//EN" "http://www.w3.org/Graphics/SVG/1.1/DTD/svg11.dtd"><svg t="1571837308761" class="icon" viewBox="0 0 1024 1024" version="1.1" xmlns="http://www.w3.org/2000/svg" p-id="7900" width="32" height="32" xmlns:xlink="http://www.w3.org/1999/xlink"><defs><style type="text/css"></style></defs><path d="M656.5888 549.82656l173.19936 216.4736a45.1584 45.1584 0 0 1-63.488 63.488l-216.4736-173.19936a60.53888 60.53888 0 0 0-75.65312 0l-216.4736 173.19936a45.1584 45.1584 0 0 1-63.488-63.488l173.19936-216.4736a60.53888 60.53888 0 0 0 0-75.65312l-173.19936-216.4736a45.1584 45.1584 0 0 1 63.488-63.488l216.4736 173.19936a60.53888 60.53888 0 0 0 75.65312 0l216.4736-173.19936a45.1584 45.1584 0 0 1 63.488 63.488l-173.19936 216.4736a60.53888 60.53888 0 0 0 0 75.65312z" p-id="7901" fill="#8a8a8a"></path></svg>