<?xml version="1.0" standalone="no"?><!DOCTYPE svg PUBLIC "-//W3C//DTD SVG 1.1//EN" "http://www.w3.org/Graphics/SVG/1.1/DTD/svg11.dtd"><svg t="1571753018173" class="icon" viewBox="0 0 1024 1024" version="1.1" xmlns="http://www.w3.org/2000/svg" p-id="26006" width="32" height="32" xmlns:xlink="http://www.w3.org/1999/xlink"><defs><style type="text/css"></style></defs><path d="M395.626667 85.333333h232.746666c32.128 0 58.176 25.813333 58.176 57.664 0 31.829333-26.048 57.642667-58.176 57.642667h-232.746666c-32.128 0-58.176-25.813333-58.176-57.642667C337.450667 111.146667 363.52 85.333333 395.626667 85.333333z m-104.725334 57.664v23.04c0 44.586667 36.48 80.725333 81.472 80.725334h279.253334c45.013333 0 81.472-36.138667 81.472-80.704V142.997333c0-3.925333-0.298667-7.765333-0.832-11.541333h70.634666c51.413333 0 93.098667 41.301333 93.098667 92.245333v622.72C896 897.365333 854.314667 938.666667 802.901333 938.666667H221.098667C169.685333 938.666667 128 897.365333 128 846.421333v-622.72c0-50.944 41.685333-92.245333 93.098667-92.245333h70.634666a80.682667 80.682667 0 0 0-0.832 11.52zM459.306667 625.28l-81.386667-64.426667a48.490667 48.490667 0 0 0-68.757333 8.789334l-16.874667 22.357333a48.469333 48.469333 0 0 0 8.576 67.221333l107.989333 85.482667c1.557333 1.770667 3.264 3.434667 5.12 4.992l21.504 18.133333c19.904 16.810667 49.514667 14.869333 67.072-4.373333l227.584-249.408a48.469333 48.469333 0 0 0-4.544-69.738667l-21.546666-18.133333a48.469333 48.469333 0 0 0-67.050667 4.373333l-177.685333 194.730667z" p-id="26007" fill="#8a8a8a"></path></svg>