<?xml version="1.0" standalone="no"?><!DOCTYPE svg PUBLIC "-//W3C//DTD SVG 1.1//EN" "http://www.w3.org/Graphics/SVG/1.1/DTD/svg11.dtd"><svg t="1575813258457" class="icon" viewBox="0 0 1024 1024" version="1.1" xmlns="http://www.w3.org/2000/svg" p-id="4711" width="32" height="32" xmlns:xlink="http://www.w3.org/1999/xlink"><defs><style type="text/css"></style></defs><path d="M941.30176 381.07136l-0.08192-0.4096c1.10592 5.24288 1.18784 10.752 0.12288 16.24064l-73.3184 379.24864A204.8 204.8 0 0 1 666.95168 942.08H357.0688a204.8 204.8 0 0 1-201.07264-165.92896L82.67776 396.9024a40.5504 40.5504 0 0 1 6.41024-30.9248 41.5744 41.5744 0 0 1 11.44832-11.18208L488.87808 89.06752a40.96 40.96 0 0 1 46.26432 0l388.34176 265.728a40.63232 40.63232 0 0 1 11.4688 11.20256c3.19488 4.7104 5.30432 9.8304 6.3488 15.07328zM828.6208 389.12L512 172.50304 195.42016 389.12l316.60032 216.61696L828.60032 389.12z" p-id="4712" fill="#8a8a8a"></path></svg>