<?xml version="1.0" standalone="no"?><!DOCTYPE svg PUBLIC "-//W3C//DTD SVG 1.1//EN" "http://www.w3.org/Graphics/SVG/1.1/DTD/svg11.dtd"><svg t="1574948632651" class="icon" viewBox="0 0 1024 1024" version="1.1" xmlns="http://www.w3.org/2000/svg" p-id="7595" width="32" height="32" xmlns:xlink="http://www.w3.org/1999/xlink"><defs><style type="text/css"></style></defs><path d="M697.40544 581.55008l179.712 179.73248a81.92 81.92 0 1 1-115.83488 115.83488l-179.73248-179.712A305.80736 305.80736 0 0 1 430.08 737.28c-169.65632 0-307.2-137.54368-307.2-307.2 0-169.65632 137.54368-307.2 307.2-307.2 169.65632 0 307.2 137.54368 307.2 307.2 0 55.0912-14.49984 106.76224-39.87456 151.47008zM430.08 655.36c124.416 0 225.28-100.864 225.28-225.28s-100.864-225.28-225.28-225.28-225.28 100.864-225.28 225.28 100.864 225.28 225.28 225.28z m0-389.12a40.96 40.96 0 1 1 0 81.92 81.92 81.92 0 0 0-81.92 81.92 40.96 40.96 0 1 1-81.92 0 163.84 163.84 0 0 1 163.84-163.84z" p-id="7596" fill="#8a8a8a"></path></svg>