<?xml version="1.0" standalone="no"?><!DOCTYPE svg PUBLIC "-//W3C//DTD SVG 1.1//EN" "http://www.w3.org/Graphics/SVG/1.1/DTD/svg11.dtd"><svg t="1575813116048" class="icon" viewBox="0 0 1024 1024" version="1.1" xmlns="http://www.w3.org/2000/svg" p-id="4253" width="32" height="32" xmlns:xlink="http://www.w3.org/1999/xlink"><defs><style type="text/css"></style></defs><path d="M478.4128 491.7248l-202.1376-30.1056a81.92 81.92 0 0 1-64.67584-52.38784L125.52192 178.4832c-7.8848-21.17632 2.49856-44.8512 23.22432-52.92032a39.38304 39.38304 0 0 1 31.90784 1.47456L878.592 475.15648c19.90656 9.9328 28.18048 34.48832 18.432 54.82496-3.8912 8.21248-10.40384 14.848-18.432 18.8416L180.6336 896.96256a39.77216 39.77216 0 0 1-53.6576-18.8416 41.7792 41.7792 0 0 1-1.45408-32.58368l86.07744-230.74816a81.92 81.92 0 0 1 64.67584-52.38784l202.1376-30.1056a20.48 20.48 0 0 0 0-40.5504z" p-id="4254" fill="#8a8a8a"></path></svg>