<?xml version="1.0" standalone="no"?><!DOCTYPE svg PUBLIC "-//W3C//DTD SVG 1.1//EN" "http://www.w3.org/Graphics/SVG/1.1/DTD/svg11.dtd"><svg t="1571837149794" class="icon" viewBox="0 0 1024 1024" version="1.1" xmlns="http://www.w3.org/2000/svg" p-id="7409" width="32" height="32" xmlns:xlink="http://www.w3.org/1999/xlink"><defs><style type="text/css"></style></defs><path d="M398.336 682.96704C258.68288 695.33696 184.32 724.74624 184.32 778.24a61.44 61.44 0 0 1-122.88 0c0-186.1632 110.14144-314.61376 330.4448-385.4336 34.75456-11.1616 90.95168-24.00256 168.61184-38.52288A40.96 40.96 0 0 0 593.92 314.01984v-107.52C593.92 194.2528 603.93472 184.32 616.28416 184.32c5.46816 0 10.77248 1.98656 14.848 5.61152L940.032 462.27456a66.1504 66.1504 0 0 1 0 99.45088L631.13216 834.06848c-9.216 8.15104-23.3472 7.33184-31.55968-1.8432a22.07744 22.07744 0 0 1-5.65248-14.7456v-99.9424a40.96 40.96 0 0 0-41.82016-40.93952c-71.4752 1.49504-122.71616 3.60448-153.76384 6.3488z" p-id="7410" fill="#8a8a8a"></path></svg>