<?xml version="1.0" standalone="no"?><!DOCTYPE svg PUBLIC "-//W3C//DTD SVG 1.1//EN" "http://www.w3.org/Graphics/SVG/1.1/DTD/svg11.dtd"><svg t="1605077194329" class="icon" viewBox="0 0 1024 1024" version="1.1" xmlns="http://www.w3.org/2000/svg" p-id="3462" width="32" height="32" xmlns:xlink="http://www.w3.org/1999/xlink"><defs><style type="text/css"></style></defs><path d="M252.068571 906.496h520.283429c89.581714 0 134.144-44.562286 134.144-132.845714V250.331429c0-88.283429-44.562286-132.845714-134.144-132.845715H252.068571c-89.142857 0-134.582857 44.141714-134.582857 132.845715V773.668571c0 88.704 45.44 132.845714 134.582857 132.845715z m201.874286-175.286857c-15.012571 0-26.148571-6.418286-38.162286-20.992l-123.849142-152.576c-6.436571-8.137143-10.294857-18.432-10.294858-27.849143 0-20.150857 15.872-35.584 34.724572-35.584 12.434286 0 23.131429 4.717714 32.987428 18.011429l102.436572 132.425142 199.277714-319.286857c8.155429-13.293714 19.291429-19.712 30.445714-19.712 18.834286 0 37.266286 12.434286 37.266286 33.005715 0 9.417143-5.558857 19.712-11.136 28.269714L489.929143 710.217143c-9.435429 14.134857-21.430857 20.992-36.004572 20.992z" p-id="3463" fill="#8a8a8a"></path></svg>