<?xml version="1.0" standalone="no"?><!DOCTYPE svg PUBLIC "-//W3C//DTD SVG 1.1//EN" "http://www.w3.org/Graphics/SVG/1.1/DTD/svg11.dtd"><svg t="1573735755025" class="icon" viewBox="0 0 1024 1024" version="1.1" xmlns="http://www.w3.org/2000/svg" p-id="4253" width="32" height="32" xmlns:xlink="http://www.w3.org/1999/xlink"><defs><style type="text/css"></style></defs><path d="M512 962.56C263.168 962.56 61.44 760.832 61.44 512S263.168 61.44 512 61.44s450.56 201.728 450.56 450.56-201.728 450.56-450.56 450.56z m-27.50464-737.28a99.84 99.84 0 0 0-99.49184 108.1344l3.72736 44.66688a123.6992 123.6992 0 0 0 246.53824 0l3.72736-44.66688A99.84 99.84 0 0 0 539.50464 225.28h-55.00928z m264.13056 569.40544l28.81536-129.536a33.28 33.28 0 0 0-13.12768-34.304c-83.02592-59.31008-167.3216-89.3952-252.3136-89.3952s-169.28768 30.1056-252.3136 89.3952a33.28 33.28 0 0 0-13.12768 34.304l28.83584 129.55648A367.14496 367.14496 0 0 0 512 880.64c90.07104 0 172.58496-32.29696 236.62592-85.95456z" p-id="4254" fill="#8a8a8a"></path></svg>